HIERARCHY
ROOT Hips
{
 OFFSET 0.000000 0.000000 0.000000
 CHANNELS 6 Xposition Yposition Zposition Yrotation Xrotation Zrotation
 JOINT Chest
 {
  OFFSET 0.000000 9.585900 0.002600
  CHANNELS 3 Yrotation Xrotation Zrotation
  JOINT Chest2
  {
   OFFSET 0.000000 9.601200 -0.005300
   CHANNELS 3 Yrotation Xrotation Zrotation
   JOINT Chest3
   {
    OFFSET 0.000000 9.561800 0.000000
    CHANNELS 3 Yrotation Xrotation Zrotation
    JOINT Chest4
    {
     OFFSET 0.000000 9.552100 0.000000
     CHANNELS 3 Yrotation Xrotation Zrotation
     JOINT Neck
     {
      OFFSET 0.000000 14.453000 0.000000
      CHANNELS 3 Yrotation Xrotation Zrotation
      JOINT Head
      {
       OFFSET 0.000000 8.936500 -0.011300
       CHANNELS 3 Yrotation Xrotation Zrotation
       End Site
       {
        OFFSET 0.000000 17.073600 -0.006000
       }
      }
     }
     JOINT RightCollar
     {
      OFFSET -2.921100 9.558500 0.000000
      CHANNELS 3 Yrotation Xrotation Zrotation
      JOINT RightShoulder
      {
       OFFSET -13.519700 0.000000 0.000000
       CHANNELS 3 Yrotation Xrotation Zrotation
       JOINT RightElbow
       {
        OFFSET 0.000000 -29.696600 0.000000
        CHANNELS 3 Yrotation Xrotation Zrotation
        JOINT RightWrist
        {
         OFFSET 0.000000 -24.004700 0.000000
         CHANNELS 3 Yrotation Xrotation Zrotation
         End Site
         {
          OFFSET 0.000000 -17.728500 0.000000
         }
        }
       }
      }
     }
     JOINT LeftCollar
     {
      OFFSET 2.921100 9.558500 0.000000
      CHANNELS 3 Yrotation Xrotation Zrotation
      JOINT LeftShoulder
      {
       OFFSET 13.519700 0.000000 0.000000
       CHANNELS 3 Yrotation Xrotation Zrotation
       JOINT LeftElbow
       {
        OFFSET 0.000000 -29.696600 0.000000
        CHANNELS 3 Yrotation Xrotation Zrotation
        JOINT LeftWrist
        {
         OFFSET 0.000000 -24.004700 0.000000
         CHANNELS 3 Yrotation Xrotation Zrotation
         End Site
         {
          OFFSET 0.000000 -17.728500 0.000000
         }
        }
       }
      }
     }
    }
   }
  }
 }
 JOINT RightHip
 {
  OFFSET -7.771700 -0.012900 -0.001300
  CHANNELS 3 Yrotation Xrotation Zrotation
  JOINT RightKnee
  {
   OFFSET 0.000000 -40.869800 0.001200
   CHANNELS 3 Yrotation Xrotation Zrotation
   JOINT RightAnkle
   {
    OFFSET 0.000000 -39.717900 0.002100
    CHANNELS 3 Yrotation Xrotation Zrotation
    JOINT RightToe
    {
     OFFSET 0.000000 -4.965400 11.033500
     CHANNELS 3 Yrotation Xrotation Zrotation
     End Site
     {
      OFFSET 0.000000 -1.423100 5.872300
     }
    }
   }
  }
 }
 JOINT LeftHip
 {
  OFFSET 7.771700 -0.012900 -0.001300
  CHANNELS 3 Yrotation Xrotation Zrotation
  JOINT LeftKnee
  {
   OFFSET 0.000000 -40.869800 0.001200
   CHANNELS 3 Yrotation Xrotation Zrotation
   JOINT LeftAnkle
   {
    OFFSET 0.000000 -39.717900 0.002100
    CHANNELS 3 Yrotation Xrotation Zrotation
    JOINT LeftToe
    {
     OFFSET 0.000000 -4.965400 11.033500
     CHANNELS 3 Yrotation Xrotation Zrotation
     End Site
     {
      OFFSET 0.000000 -1.423100 5.872300
     }
    }
   }
  }
 }
}
MOTION
Frames: 13
Frame Time: 0.008333
-66.232514 55.464307 -33.613007 -176.833648 -9.971797 -1.016842 -0.450589 16.068162 1.243809 -0.050060 1.596972 0.146065 -0.081584 2.673703 0.243799 -0.308090 14.291697 1.281254 1.083144 12.577973 2.143438 0.645537 -12.469461 1.992761 4.647287 3.771015 -0.795925 -1.260323 -19.622662 -5.241435 -69.191033 -25.344643 96.867664 -29.054510 -8.544553 -11.415738 -7.258731 0.171249 0.644183 8.841970 -22.501733 -2.358177 59.341957 -28.604897 -93.392265 22.311021 -16.484750 6.427126 -0.904895 -65.620806 10.800388 -45.847039 86.135856 -48.072582 -12.018496 -18.703711 10.981698 0.102473 0.272588 -0.354097 10.005938 -62.560251 -10.361119 94.172456 70.044075 96.045001 3.158790 -19.487524 -5.093590 -0.114509 0.121769 -0.042945
-66.232736 55.460294 -33.610589 -176.826633 -10.034520 -1.019855 -0.450785 16.004887 1.222515 -0.048528 1.584835 0.143366 -0.079088 2.654233 0.239350 -0.298475 14.245874 1.263631 1.056052 12.494251 2.129061 0.620625 -12.554898 1.984147 4.583672 3.745151 -0.771160 -1.250912 -19.429388 -5.213084 -69.069535 -25.379948 96.897369 -29.036317 -8.555896 -11.440419 -7.235695 0.145202 0.671821 8.771077 -22.387148 -2.286920 59.317493 -28.636908 -93.442871 22.276612 -16.473132 6.441369 -0.966840 -65.557391 10.851790 -45.912417 86.149045 -48.160764 -12.066061 -18.764847 11.064621 0.077963 0.237015 -0.316451 9.968647 -62.507083 -10.329122 94.178717 70.040915 96.043807 3.156345 -19.484782 -5.085252 -0.115753 0.125034 -0.046086
-66.232773 55.457388 -33.614438 -176.829602 -10.137952 -1.027429 -0.441171 15.985671 1.209868 -0.046718 1.572505 0.140620 -0.076162 2.634408 0.234887 -0.286310 14.199018 1.246151 1.024790 12.405621 2.104843 0.593487 -12.645465 1.966159 4.520202 3.720682 -0.747719 -1.245147 -19.236026 -5.191037 -68.969659 -25.420119 96.916427 -29.002207 -8.541985 -11.457808 -7.211686 0.123789 0.702901 8.713220 -22.268357 -2.223207 59.296774 -28.701678 -93.508674 22.236962 -16.465399 6.466203 -1.092270 -65.448158 10.972765 -46.164949 86.150884 -48.462620 -12.081774 -18.819401 11.133623 0.083465 0.197452 -0.271856 9.926927 -62.423235 -10.281699 94.224446 70.034576 96.090160 3.163446 -19.463703 -5.085034 -0.125415 0.104081 -0.049580
-66.233163 55.453329 -33.610934 -176.845750 -10.199646 -1.031977 -0.421463 15.928078 1.197076 -0.044443 1.560294 0.138007 -0.072419 2.614799 0.230652 -0.269525 14.152456 1.230186 0.987422 12.310299 2.069377 0.562477 -12.742874 1.937741 4.453624 3.695438 -0.722356 -1.266660 -19.071984 -5.190250 -68.845307 -25.458275 96.915035 -28.954520 -8.523643 -11.478309 -7.191121 0.105664 0.737611 8.661156 -22.100949 -2.182441 59.301653 -28.841644 -93.620926 22.191493 -16.452429 6.499394 -1.201276 -65.382645 11.089955 -46.371528 86.145294 -48.722840 -12.074834 -18.867552 11.196475 0.089859 0.182976 -0.248724 9.914861 -62.370329 -10.250093 94.237581 70.033711 96.104802 3.162250 -19.462661 -5.084621 -0.123549 0.104140 -0.049683
-66.234370 55.449005 -33.604111 -176.860493 -10.243927 -1.035115 -0.404680 15.913469 1.192332 -0.043231 1.491218 0.124928 -0.068264 2.596148 0.226856 -0.250149 14.107968 1.216281 0.945476 12.206671 2.021973 0.529435 -12.848716 1.897845 4.388003 3.664493 -0.695039 -1.246468 -18.882954 -5.184801 -68.768894 -25.572820 96.928964 -28.893760 -8.512339 -11.506207 -7.168267 0.089017 0.775532 8.625226 -22.007496 -2.116335 59.280252 -28.943713 -93.685181 22.140391 -16.427927 6.535347 -1.379031 -65.325847 11.258921 -46.333745 86.145045 -48.766364 -12.064359 -18.918377 11.253419 0.091502 0.176765 -0.230388 9.907588 -62.330911 -10.224554 94.242733 70.030822 96.105535 3.155605 -19.474190 -5.076203 -0.119585 0.116585 -0.052059
-66.236612 55.445088 -33.596949 -176.877565 -10.289214 -1.035862 -0.390846 15.814718 1.167950 -0.040882 1.508967 0.128306 -0.064322 2.577957 0.223556 -0.231498 14.064314 1.204735 0.900861 12.096130 1.962242 0.496403 -12.961628 1.845674 4.324767 3.631611 -0.666908 -1.227236 -18.694399 -5.186925 -68.692382 -25.727984 96.946397 -28.813456 -8.503022 -11.540141 -7.137630 0.079276 0.816193 8.592369 -21.913622 -2.055407 59.265106 -29.061134 -93.755349 22.084023 -16.391799 6.567041 -1.467346 -65.277122 11.351589 -46.385766 86.142205 -48.858637 -12.101004 -18.961860 11.313980 0.085848 0.172155 -0.214150 9.909699 -62.293330 -10.212223 94.254289 70.024512 96.119471 3.152110 -19.479800 -5.072379 -0.114889 0.123359 -0.054052
-66.238077 55.442353 -33.592926 -176.901743 -10.356690 -1.044698 -0.367209 15.739235 1.154801 -0.037342 1.526451 0.131842 -0.060534 2.560279 0.220589 -0.213279 14.021637 1.195044 0.851867 11.980532 1.891655 0.461204 -13.079731 1.783205 4.259641 3.599265 -0.635293 -1.206946 -18.508249 -5.198821 -68.617437 -25.916993 96.965068 -28.715800 -8.490854 -11.576097 -7.103950 0.076698 0.861846 8.559872 -21.790618 -2.015722 59.263220 -29.207657 -93.853640 22.026116 -16.348918 6.590288 -1.491373 -65.209811 11.402889 -46.768489 86.114778 -49.252137 -12.125819 -19.005511 11.378364 0.080132 0.168584 -0.199726 9.919047 -62.237437 -10.187425 94.283955 70.022578 96.160014 3.146377 -19.481502 -5.068184 -0.110040 0.119756 -0.052758
-66.241721 55.441109 -33.593294 -176.930674 -10.455651 -1.043596 -0.339944 15.724809 1.140806 -0.034411 1.577159 0.138330 -0.057533 2.482926 0.209549 -0.194560 13.981778 1.185678 0.797054 11.860972 1.811447 0.422087 -13.201831 1.712055 4.192395 3.565188 -0.598424 -1.169409 -18.312398 -5.207992 -68.563423 -26.152757 96.989573 -28.608767 -8.466647 -11.610797 -7.070834 0.075228 0.914162 8.535887 -21.659849 -1.990865 59.259296 -29.357425 -93.964618 21.969750 -16.300803 6.609096 -1.545579 -65.105002 11.474293 -46.827473 86.115530 -49.343628 -12.161701 -19.053755 11.434211 0.077338 0.164713 -0.186085 9.927475 -62.142937 -10.155824 94.286108 70.019674 96.153716 3.151083 -19.477740 -5.047848 -0.123311 0.115639 -0.059239
-66.245660 55.439345 -33.586838 -176.954665 -10.518206 -1.040501 -0.322370 15.676151 1.126563 -0.028790 1.627056 0.142466 -0.057180 2.408670 0.201247 -0.175760 13.945196 1.176822 0.737877 11.738616 1.721220 0.380696 -13.326645 1.631399 4.126698 3.530969 -0.558783 -1.127355 -18.122748 -5.225982 -68.513762 -26.403887 97.013350 -28.504666 -8.424255 -11.640551 -7.035302 0.075142 0.970667 8.516299 -21.524402 -1.977257 59.257967 -29.508720 -94.084990 21.912052 -16.247189 6.627117 -1.601274 -65.037922 11.544525 -47.076518 86.089719 -49.626711 -12.185074 -19.095774 11.489266 0.073765 0.163881 -0.172462 9.936293 -62.082665 -10.135419 94.272326 70.012351 96.133841 3.140666 -19.479739 -5.037683 -0.122909 0.121267 -0.058451
-66.248635 55.438116 -33.579001 -176.980744 -10.577981 -1.041984 -0.305464 15.627573 1.120007 -0.028971 1.527257 0.129791 -0.051158 2.486032 0.210202 -0.158143 13.911166 1.169859 0.677364 11.614448 1.620050 0.340423 -13.453257 1.539578 4.066852 3.497303 -0.521635 -1.100276 -17.955331 -5.266481 -68.441385 -26.632049 97.027107 -28.411598 -8.368901 -11.657944 -6.995360 0.079336 1.025965 8.497697 -21.387474 -1.968344 59.265028 -29.664766 -94.211169 21.853430 -16.186194 6.645174 -1.662124 -64.974165 11.621537 -47.036360 86.083002 -49.620200 -12.214796 -19.130647 11.537225 0.073412 0.158448 -0.159830 9.963893 -62.028518 -10.127853 94.256371 70.008171 96.124135 3.134287 -19.475819 -5.028754 -0.123704 0.122147 -0.056951
-66.248797 55.437106 -33.567904 -176.995671 -10.623384 -1.059816 -0.299526 15.566606 1.131588 -0.028837 1.490082 0.125995 -0.046634 2.501656 0.211085 -0.143525 13.878283 1.164775 0.617217 11.491692 1.508264 0.302962 -13.578431 1.436620 4.012998 3.464920 -0.489030 -1.063798 -17.804498 -5.344137 -68.367381 -26.814986 97.033624 -28.325435 -8.301915 -11.658532 -6.950993 0.087987 1.076363 8.481699 -21.247367 -1.960018 59.281938 -29.833188 -94.338355 21.792785 -16.121763 6.666221 -1.766860 -64.923498 11.736652 -46.923870 86.077664 -49.540516 -12.248103 -19.154345 11.572394 0.095020 0.171745 -0.161971 10.010598 -61.994565 -10.132056 94.249088 70.015999 96.151175 3.113801 -19.470231 -5.026235 -0.103927 0.117133 -0.046383
-66.250350 55.437752 -33.561413 -177.026999 -10.704167 -1.065686 -0.283176 15.540336 1.136892 -0.027668 1.482067 0.125118 -0.044647 2.488752 0.209646 -0.133833 13.846288 1.161023 0.558551 11.373796 1.387510 0.269058 -13.698650 1.323985 3.964599 3.437130 -0.460910 -1.012994 -17.645121 -5.405952 -68.298932 -27.001015 97.036258 -28.236622 -8.216707 -11.644398 -6.896224 0.099673 1.121549 8.457944 -21.101794 -1.964458 59.308904 -30.038376 -94.452917 21.720709 -16.067545 6.695309 -1.835469 -64.842541 11.828672 -46.863224 86.077853 -49.511400 -12.269792 -19.159311 11.584136 0.064446 0.159675 -0.149943 10.039937 -61.916921 -10.110704 94.230918 70.023437 96.149317 3.103158 -19.469720 -5.026093 -0.094509 0.116262 -0.037184
-66.250777 55.438257 -33.550084 -177.077687 -10.761999 -1.071068 -0.252275 15.490812 1.147083 -0.027124 1.474455 0.124410 -0.043668 2.476542 0.208517 -0.129712 13.815773 1.158356 0.503723 11.262257 1.259561 0.240785 -13.812466 1.202960 3.924455 3.413765 -0.438460 -0.961780 -17.484523 -5.461076 -68.220071 -27.175853 97.033873 -28.140243 -8.119170 -11.621209 -6.827920 0.111775 1.162948 8.419285 -20.952858 -1.995904 59.347748 -30.307911 -94.542133 21.629243 -16.022728 6.739052 -1.875323 -64.782515 11.910975 -46.575517 86.059261 -49.249833 -12.270815 -19.163645 11.613466 0.087075 0.114397 -0.104289 10.068265 -61.862140 -10.075718 94.201459 70.020724 96.123213 3.094867 -19.470271 -5.022354 -0.093379 0.117276 -0.034683
